<?xml version="1.0" encoding="utf-8"?>
<!-- Generator: Adobe Illustrator 27.2.0, SVG Export Plug-In . SVG Version: 6.00 Build 0)  -->
<svg version="1.1" xmlns="http://www.w3.org/2000/svg" xmlns:xlink="http://www.w3.org/1999/xlink" x="0px" y="0px"
	 viewBox="0 0 1200 1200" style="enable-background:new 0 0 1200 1200;" xml:space="preserve">
<style type="text/css">
	.st0{fill:#254789;}
	.st1{display:none;}
	.st2{display:inline;}
</style>
<g id="Layer_1">
	<g>
		<path class="st0" d="M226.9,442.2h314v46.5h-314L226.9,442.2z"/>
		<path class="st0" d="M210,442.2l-39.9,35.2v11.3h51.4v-46.5H210z"/>
		<path class="st0" d="M546.2,442.2h314v46.5h-314L546.2,442.2z"/>
		<path class="st0" d="M877,442.2l39.9,35.2v11.3h-51.4v-46.5H877z"/>
		<path class="st0" d="M1200,698l-13.8-11.6l-21.3-192.9H25.2v41.7l17.6,0c0,0-16.4,29.5-19.4,57.2l-9.1,112l-12.6,0.7L0,731.9
			h157.4c-1.8-5.4-2.8-11.2-2.8-17.3c0-30.6,24.8-55.4,55.4-55.4c30.6,0,55.4,24.8,55.4,55.4c0,6-1,11.8-2.8,17.3h606.8
			c-1.8-5.4-2.7-11.2-2.7-17.3c0-30.6,24.8-55.4,55.4-55.4c30.6,0,55.4,24.8,55.4,55.4c0,6-1,11.8-2.8,17.3h63.6l146.9-16.4h14.6
			L1200,698z M148.6,622.8c0,10.8-8.8,19.7-19.7,19.7H66.3c-10.9,0-19.7-8.8-19.7-19.7v-60.2c0-10.9,8.8-19.7,19.7-19.7h62.6
			c10.9,0,19.7,8.8,19.7,19.7L148.6,622.8z M963.3,542.9h88.2c10.5,0,19,8.2,19.6,18.5H943.7C944.4,551.1,952.9,542.9,963.3,542.9
			L963.3,542.9z M808.4,542.9h88.2c10.5,0,19,8.2,19.6,18.5H788.8C789.4,551.1,797.9,542.9,808.4,542.9L808.4,542.9z M651.4,542.9
			h92.1c10.5,0,19,8.2,19.6,18.5H631.8C632.4,551.1,641,542.9,651.4,542.9z M496.4,542.9h92.1c10.5,0,19,8.2,19.6,18.5H476.8
			C477.5,551.1,486,542.9,496.4,542.9z M341.5,542.9h92.1c10.5,0,19,8.2,19.6,18.5H321.8C322.5,551.1,331,542.9,341.5,542.9z
			 M186.5,542.9h92.1c10.5,0,19,8.2,19.6,18.5H166.8C167.5,551.1,176,542.9,186.5,542.9L186.5,542.9z M278.5,642.5h-92.1
			c-10.9,0-19.7-8.8-19.7-19.7v-54.3h131.4v54.3C298.2,633.7,289.4,642.5,278.5,642.5z M433.5,642.5h-92.1
			c-10.9,0-19.7-8.8-19.7-19.7v-54.3l131.4,0v54.3C453.2,633.7,444.4,642.5,433.5,642.5L433.5,642.5z M588.5,642.5h-92.1
			c-10.9,0-19.7-8.8-19.7-19.7v-54.3h131.4v54.3C608.2,633.7,599.4,642.5,588.5,642.5L588.5,642.5z M743.5,642.5h-92.1
			c-10.9,0-19.7-8.8-19.7-19.7v-54.3h131.4v54.3C763.2,633.7,754.4,642.5,743.5,642.5L743.5,642.5z M896.6,624.6h-88.2
			c-10.9,0-19.7-8.8-19.7-19.7v-36.4h127.6v36.4C916.2,615.8,907.4,624.6,896.6,624.6L896.6,624.6z M1051.6,624.6h-88.2
			c-10.9,0-19.7-8.8-19.7-19.7v-36.4h127.6v36.4C1071.2,615.8,1062.4,624.6,1051.6,624.6L1051.6,624.6z"/>
	</g>
</g>
<g id="Layer_2" class="st1">
	<g class="st2">
		<path class="st0" d="M922.2,671.4c-23.9,0-43.2,19.3-43.2,43.2s19.3,43.2,43.2,43.2s43.2-19.3,43.2-43.2S946.1,671.4,922.2,671.4z
			 M922.2,739.6c-13.8,0-25-11.2-25-25s11.2-25,25-25s25,11.2,25,25S936,739.6,922.2,739.6z"/>
		<path class="st0" d="M210,671.4c-23.9,0-43.2,19.3-43.2,43.2s19.3,43.2,43.2,43.2s43.2-19.3,43.2-43.2S233.9,671.4,210,671.4z
			 M210,739.6c-13.8,0-25-11.2-25-25s11.2-25,25-25s25,11.2,25,25S223.8,739.6,210,739.6z"/>
		<path class="st0" d="M218.7,713.7c0,4.8-3.9,8.6-8.6,8.6c-4.8,0-8.6-3.9-8.6-8.6c0-4.8,3.9-8.6,8.6-8.6
			C214.8,705.1,218.7,708.9,218.7,713.7"/>
		<path class="st0" d="M930.8,713.7c0,4.8-3.9,8.6-8.6,8.6c-4.8,0-8.6-3.9-8.6-8.6c0-4.8,3.9-8.6,8.6-8.6
			C927,705.1,930.8,708.9,930.8,713.7"/>
	</g>
</g>
</svg>
