<?xml version="1.0" encoding="UTF-8"?>
<svg id="Layer_2" data-name="Layer 2" xmlns="http://www.w3.org/2000/svg" viewBox="0 0 1200 1200">
  <defs>
    <style>
      .cls-1 {
        fill: #254789;
      }
    </style>
  </defs>
  <path class="cls-1" d="m922.19,671.38c-23.85,0-43.21,19.34-43.21,43.21s19.34,43.21,43.21,43.21,43.21-19.34,43.21-43.21-19.34-43.21-43.21-43.21Zm0,68.23c-13.82,0-25.03-11.21-25.03-25.03s11.21-25.03,25.03-25.03,25.03,11.21,25.03,25.03-11.21,25.03-25.03,25.03Z"/>
  <path class="cls-1" d="m210.02,671.38c-23.85,0-43.21,19.34-43.21,43.21s19.34,43.21,43.21,43.21,43.21-19.34,43.21-43.21-19.35-43.21-43.21-43.21Zm0,68.23c-13.82,0-25.03-11.21-25.03-25.03s11.21-25.03,25.03-25.03,25.03,11.21,25.03,25.03-11.21,25.03-25.03,25.03Z"/>
  <path class="cls-1" d="m218.66,713.7c0,4.77-3.87,8.64-8.64,8.64s-8.64-3.87-8.64-8.64,3.87-8.64,8.64-8.64,8.64,3.87,8.64,8.64"/>
  <path class="cls-1" d="m930.83,713.7c0,4.77-3.87,8.64-8.64,8.64s-8.64-3.87-8.64-8.64,3.87-8.64,8.64-8.64,8.64,3.87,8.64,8.64"/>
</svg>