<?xml version="1.0" encoding="UTF-8"?>
<svg id="Layer_1" data-name="Layer 1" xmlns="http://www.w3.org/2000/svg" viewBox="0 0 32 40">
  <defs>
    <style>
      .cls-1 {
        fill: #254789;
      }
    </style>
  </defs>
  <circle class="cls-1" cx="13.16" cy="5.54" r="4.82"/>
  <path class="cls-1" d="m9.26,18.65l1.06,6.39c.44,2.66,2.74,4.6,5.43,4.6h7.09c.65,0,1.19.5,1.25,1.14l.66,7.25c.06.71.66,1.25,1.37,1.25h1.5c.76,0,1.38-.62,1.38-1.38h0v-11.02c0-1.52-1.23-2.75-2.75-2.75h-5.36c-.61,0-1.14-.44-1.24-1.05l-.97-5.8c-.33-2.23-2.14-3.94-4.38-4.16-2.62-.19-4.9,1.78-5.08,4.4-.03.37,0,.75.05,1.12Z"/>
  <path class="cls-1" d="m5.74,12.93c-.09-.75-.78-1.29-1.54-1.2s-1.29.78-1.2,1.54l1.68,13.43c.6,4.82,4.7,8.45,9.57,8.45h5.1c.76,0,1.38-.62,1.38-1.38s-.62-1.38-1.38-1.38h-5.1c-3.47,0-6.4-2.59-6.83-6.03l-1.68-13.43Z"/>
</svg>