<?xml version="1.0" encoding="UTF-8"?>
<svg id="Layer_1" data-name="Layer 1" xmlns="http://www.w3.org/2000/svg" viewBox="0 0 32 40">
  <defs>
    <style>
      .cls-1 {
        fill: #254789;
      }
    </style>
  </defs>
  <path class="cls-1" d="m4.89,28.82l-2.59,4.16c-.58.94-.3,2.17.64,2.75.04.02.07.04.11.06h.01c.67.27,1.44.02,1.82-.59l3.28-4.61c.31-.5.52-1.06.63-1.64l.41-1.79c.06-.26.32-.43.58-.37.11.02.2.08.27.17l2.26,2.4.18,5.69c.1.55.58.95,1.14.95h.78c.64,0,1.15-.52,1.15-1.15,0-.05,0-.1,0-.15l.13-3.8c.41.34.92.53,1.45.53h1.14v3.43c0,.63.51,1.14,1.14,1.14h4.57c.63,0,1.14-.51,1.14-1.14v-3.43h6.86V4h-6.27c-4.19.01-7.67,3.26-7.98,7.44l-.43,6.27h-.17c-.36,0-.72.09-1.04.26-.26-.18-.47-.41-.63-.68-.77-1.44-1.61-2.83-2.53-4.18-.66-.66-1.55-1.04-2.49-1.04-1.05,0-2.09.26-3.03.75l-3.42,1.81c-.4.21-.73.54-.95.95L.14,20.97c-.3.56-.09,1.26.47,1.56,0,0,.02,0,.02.01l.76.39c.57.29,1.26.06,1.55-.5l1.88-3.55c.2-.38.5-.7.88-.92l1.03-.6-1.5,10.5c-.04.34-.15.67-.33.95Zm17.27-1.56c-1.24,0-2.24-1-2.24-2.24s1-2.24,2.24-2.24c1.24,0,2.24,1,2.24,2.24,0,1.24-1,2.24-2.24,2.24Zm-2.13-15.66c.21-2.99,2.7-5.31,5.69-5.31h3.99v11.43h-10.11l.43-6.11Zm-7.34,10.38l.21-1.1c.05-.24.28-.39.51-.35.05,0,.1.03.14.06l.48.29c.26.16.53.29.81.42v5.1l-1.81-2.68c-.34-.51-.47-1.13-.35-1.73h0Z"/>
  <path class="cls-1" d="m13.21,4c-1.95,0-3.53,1.58-3.53,3.53,0,1.95,1.58,3.53,3.53,3.53,1.95,0,3.53-1.58,3.53-3.53h0c0-1.95-1.58-3.53-3.53-3.53h0Z"/>
</svg>