<?xml version="1.0" encoding="utf-8"?>
<!-- Generator: Adobe Illustrator 27.2.0, SVG Export Plug-In . SVG Version: 6.00 Build 0)  -->
<svg version="1.1" id="Layer_1" xmlns="http://www.w3.org/2000/svg" xmlns:xlink="http://www.w3.org/1999/xlink" x="0px" y="0px"
	 viewBox="0 0 110 135" style="enable-background:new 0 0 110 135;" xml:space="preserve">
<style type="text/css">
	.st0{fill-rule:evenodd;clip-rule:evenodd;fill:#FFF8DC;}
</style>
<g>
	<path class="st0" d="M91.5,10l-7.3,1.8l7.3,1.8l1.8,7.3l1.8-7.3l7.3-1.8L95.2,10l-1.8-7.3L91.5,10z M86.8,15.8
		c0.3,0.4,0.2,1-0.2,1.3L62.8,33.5c-0.4,0.3-1,0.2-1.3-0.2c-0.3-0.4-0.2-1,0.2-1.3l23.7-16.4C86,15.3,86.5,15.4,86.8,15.8L86.8,15.8
		z M52.8,39.9c0.4-0.3,0.5-0.9,0.2-1.3c-0.3-0.4-0.9-0.5-1.3-0.2L28,54.9c-0.4,0.3-0.5,0.9-0.2,1.3c0.3,0.4,0.9,0.5,1.3,0.2
		L52.8,39.9z M27.7,62.4c0.3-0.4,0.8-0.6,1.3-0.3l17.4,11c0.4,0.3,0.6,0.8,0.3,1.3c-0.3,0.4-0.8,0.6-1.3,0.3L28,63.7
		C27.6,63.4,27.5,62.9,27.7,62.4z M20.3,69.3c0.5,0,0.9,0.4,0.9,0.9v3.7c0,0.5-0.4,0.9-0.9,0.9c-0.5,0-0.9-0.4-0.9-0.9v-3.7
		C19.4,69.7,19.8,69.3,20.3,69.3z M15.6,95.3c-0.3-0.4-0.9-0.5-1.3-0.2c-0.4,0.3-0.5,0.9-0.2,1.3l19.2,27.4c0.3,0.4,0.9,0.5,1.3,0.2
		c0.4-0.3,0.5-0.9,0.2-1.3L15.6,95.3z M54.2,107.7c0.5-0.1,0.8-0.6,0.8-1.1c-0.1-0.5-0.6-0.8-1.1-0.7l-5.5,0.9
		c-0.5,0.1-0.8,0.6-0.7,1c0.1,0.5,0.6,0.8,1.1,0.7L54.2,107.7z M64.2,108.2c0.2-0.5,0.8-0.6,1.2-0.4l1.8,0.9
		c0.5,0.2,0.6,0.8,0.4,1.2c-0.2,0.5-0.8,0.6-1.2,0.4l-1.8-0.9C64.2,109.2,64,108.6,64.2,108.2L64.2,108.2z M74.4,113.5
		c0.3-0.4,0.9-0.5,1.3-0.1l4.6,3.7c0.4,0.3,0.5,0.9,0.1,1.3c-0.3,0.4-0.9,0.5-1.3,0.1l-4.6-3.7C74.1,114.5,74.1,113.9,74.4,113.5
		L74.4,113.5z M41.6,114.1c0.5,0.2,0.7,0.7,0.6,1.2l-2.7,8.2c-0.2,0.5-0.7,0.7-1.2,0.6c-0.5-0.2-0.7-0.7-0.6-1.2l2.7-8.2
		C40.6,114.2,41.1,114,41.6,114.1z M68.9,73.9c0.5-0.1,0.8-0.6,0.7-1.1c-0.1-0.5-0.6-0.8-1.1-0.7l-11.9,2.7
		c-0.5,0.1-0.8,0.6-0.7,1.1c0.1,0.5,0.6,0.8,1.1,0.7L68.9,73.9z M84.2,114.1l-1.8,7.3l-7.3,1.8l7.3,1.8l1.8,7.3l1.8-7.3l7.3-1.8
		l-7.3-1.8L84.2,114.1z M67.8,111.3l2.9-0.7l0.7-2.9l0.7,2.9l2.9,0.7l-2.9,0.7l-0.7,2.9l-0.7-2.9L67.8,111.3z M59.7,106l-2.9,0.7
		l2.9,0.7l0.7,2.9l0.7-2.9l2.9-0.7l-2.9-0.7l-0.7-2.9L59.7,106z M39.5,109.5l2.9-0.7l0.7-2.9l0.7,2.9l2.9,0.7l-2.9,0.7l-0.7,2.9
		l-0.7-2.9L39.5,109.5z M36,128l-2.9,0.7l2.9,0.7l0.7,2.9l0.7-2.9l2.9-0.7l-2.9-0.7l-0.7-2.9L36,128z M7.5,90.3l2.9-0.7l0.7-2.9
		l0.7,2.9l2.9,0.7l-2.9,0.7L11.2,94l-0.7-2.9L7.5,90.3z M12.3,82.3L9.3,83l2.9,0.7l0.7,2.9l0.7-2.9l2.9-0.7l-2.9-0.7L13,79.4
		L12.3,82.3z M16.6,79.4l2.9-0.7l0.7-2.9l0.7,2.9l2.9,0.7L21,80.1L20.3,83l-0.7-2.9L16.6,79.4z M75.1,68.4l-7.3,1.8l7.3,1.8l1.8,7.3
		l1.8-7.3l7.3-1.8l-7.3-1.8l-1.8-7.3L75.1,68.4z M47.7,75.7l2.9-0.7l0.7-2.9l0.7,2.9l2.9,0.7l-2.9,0.7l-0.7,2.9l-0.7-2.9L47.7,75.7z
		 M18.5,57.5l-7.3,1.8l7.3,1.8l1.8,7.3l1.8-7.3l7.3-1.8l-7.3-1.8l-1.8-7.3L18.5,57.5z M54.1,36.4l2.9-0.7l0.7-2.9l0.7,2.9l2.9,0.7
		l-2.9,0.7l-0.7,2.9L57,37.2L54.1,36.4z"/>
</g>
</svg>
