<?xml version="1.0" encoding="utf-8"?>
<!-- Generator: Adobe Illustrator 27.2.0, SVG Export Plug-In . SVG Version: 6.00 Build 0)  -->
<svg version="1.1" id="Layer_1" xmlns="http://www.w3.org/2000/svg" xmlns:xlink="http://www.w3.org/1999/xlink" x="0px" y="0px"
	 viewBox="0 0 110 135" style="enable-background:new 0 0 110 135;" xml:space="preserve">
<style type="text/css">
	.st0{fill-rule:evenodd;clip-rule:evenodd;fill:#FFF8DC;}
</style>
<path class="st0" d="M6.2,34.4l-4.2,1l4.2,1l1,4.2l1-4.2l4.2-1l-4.2-1l-1-4.2L6.2,34.4z M14.9,34.7c-0.4-0.1-0.8,0.1-0.9,0.5
	c-0.1,0.4,0.1,0.8,0.5,0.9L66,51c0.4,0.1,0.8-0.1,0.9-0.5c0.1-0.4-0.1-0.8-0.5-0.9L14.9,34.7z M74.6,57.3c0.3-0.3,0.7-0.3,1.1-0.1
	l17.2,14.9c0.3,0.3,0.3,0.7,0.1,1.1c-0.3,0.3-0.7,0.3-1.1,0.1L74.7,58.4C74.4,58.1,74.3,57.6,74.6,57.3L74.6,57.3z M97.4,81
	c0.4-0.1,0.8,0.1,0.9,0.5l3,11.9c0.1,0.4-0.1,0.8-0.5,0.9c-0.4,0.1-0.8-0.1-0.9-0.5l-3-11.9C96.7,81.5,97,81.1,97.4,81L97.4,81z
	 M97.5,99.6l4.2-1l1-4.2l1,4.2l4.2,1l-4.2,1l-1,4.2l-1-4.2L97.5,99.6z M94.3,74.7l-4.2,1l4.2,1l1,4.2l1-4.2l4.2-1l-4.2-1l-1-4.2
	L94.3,74.7z M63.2,54.1l6-1.5l1.5-6l1.5,6l6,1.5l-6,1.5l-1.5,6l-1.5-6L63.2,54.1z"/>
</svg>
