<?xml version="1.0" encoding="utf-8"?>
<!-- Generator: Adobe Illustrator 27.2.0, SVG Export Plug-In . SVG Version: 6.00 Build 0)  -->
<svg version="1.1" id="Layer_1" xmlns="http://www.w3.org/2000/svg" xmlns:xlink="http://www.w3.org/1999/xlink" x="0px" y="0px"
	 viewBox="0 0 110 135" style="enable-background:new 0 0 110 135;" xml:space="preserve">
<style type="text/css">
	.st0{fill-rule:evenodd;clip-rule:evenodd;fill:#FFF8DC;}
</style>
<path class="st0" d="M26.9,25.9l-2.4,0.6l2.4,0.6l0.6,2.4l0.6-2.4l2.4-0.6l-2.4-0.6l-0.6-2.4L26.9,25.9z M25.9,29.1
	c0.3-0.3,0.3-0.7,0.1-1.1c-0.3-0.3-0.7-0.3-1-0.1l-3.2,2.8c-0.3,0.3-0.3,0.7-0.1,1c0.3,0.3,0.7,0.3,1.1,0.1L25.9,29.1z M21.5,34.5
	c0.3-0.3,0.8-0.3,1.1,0l1.4,1.5c0.3,0.3,0.3,0.8,0,1.1s-0.8,0.3-1.1,0l-1.4-1.5C21.2,35.3,21.2,34.8,21.5,34.5z M27.8,40.2
	c-0.2-0.3-0.7-0.5-1-0.2c-0.3,0.2-0.5,0.7-0.2,1l2.3,3.7c0.2,0.3,0.7,0.5,1,0.2c0.3-0.2,0.5-0.7,0.2-1L27.8,40.2z M29.6,48.3
	c0.4,0.2,0.5,0.7,0.2,1l-6.2,10.2c-0.2,0.4-0.7,0.5-1,0.3c-0.4-0.2-0.5-0.7-0.2-1l6.2-10.2C28.8,48.2,29.3,48.1,29.6,48.3z
	 M20.3,71.8c0.1-0.4-0.1-0.8-0.5-1c-0.4-0.1-0.8,0.1-1,0.5l-3.1,8.5c-0.1,0.4,0.1,0.8,0.5,1c0.4,0.1,0.8-0.1,1-0.5L20.3,71.8z
	 M81.9,81.4c0.2-0.3,0.7-0.4,1-0.2l2.5,1.7c0.3,0.2,0.4,0.7,0.2,1c-0.2,0.3-0.7,0.4-1,0.2l-2.5-1.7C81.7,82.2,81.7,81.7,81.9,81.4
	L81.9,81.4z M89.3,86.7c-0.3-0.3-0.7-0.4-1-0.1c-0.3,0.3-0.4,0.7-0.1,1l0.7,0.9c0.3,0.3,0.7,0.4,1,0.1c0.3-0.3,0.4-0.7,0.1-1
	L89.3,86.7z M87.1,100c0.3-0.2,0.5-0.7,0.3-1c-0.2-0.3-0.7-0.5-1-0.2l-4.7,2.8c-0.4,0.2-0.5,0.7-0.3,1c0.2,0.4,0.7,0.5,1,0.3
	L87.1,100z M75.2,101.9c-0.4-0.1-0.8,0.2-0.9,0.6c-0.1,0.4,0.2,0.8,0.6,0.9l1.3,0.3c0.4,0.1,0.8-0.2,0.9-0.6
	c0.1-0.4-0.2-0.8-0.6-0.9L75.2,101.9z M104.2,93.7c0.2,0.4,0.1,0.8-0.3,1l-4.6,2.4c-0.4,0.2-0.8,0.1-1-0.3c-0.2-0.4-0.1-0.8,0.3-1
	l4.6-2.4C103.5,93.2,104,93.3,104.2,93.7z M69.9,97.4c-0.2-0.4-0.6-0.6-1-0.4c-0.4,0.2-0.6,0.6-0.4,1l0.8,1.8c0.2,0.4,0.6,0.6,1,0.4
	c0.4-0.2,0.6-0.6,0.4-1L69.9,97.4z M78.4,81.9c0.2,0.3,0.2,0.8-0.2,1l-5.5,3.9c-0.3,0.2-0.8,0.2-1-0.2c-0.2-0.3-0.2-0.8,0.2-1
	l5.5-3.9C77.7,81.5,78.1,81.6,78.4,81.9L78.4,81.9z M59.8,87.8c-0.4-0.1-0.8,0.2-0.9,0.6c-0.1,0.4,0.2,0.8,0.6,0.9l1.1,0.2
	c0.4,0.1,0.8-0.2,0.9-0.6s-0.2-0.8-0.6-0.9L59.8,87.8z M47.8,89.1c0.1,0.4-0.1,0.8-0.5,0.9l-6,1.8c-0.4,0.1-0.8-0.1-0.9-0.5
	c-0.1-0.4,0.1-0.8,0.5-0.9l6-1.8C47.3,88.5,47.7,88.7,47.8,89.1z M34.6,94.2c0.4-0.1,0.6-0.5,0.5-0.9c-0.1-0.4-0.5-0.6-0.9-0.5
	l-2.9,0.9c-0.4,0.1-0.6,0.5-0.5,0.9c0.1,0.4,0.5,0.6,0.9,0.5L34.6,94.2z M25.9,96.9c0.3,0.2,0.4,0.7,0.1,1l-3.4,4.5
	c-0.2,0.3-0.7,0.4-1,0.1c-0.3-0.3-0.4-0.7-0.1-1l3.4-4.5C25.1,96.7,25.6,96.6,25.9,96.9z M13.6,105.5c-0.4,0-0.7,0.3-0.7,0.7
	s0.3,0.7,0.7,0.7h3.6c0.4,0,0.7-0.3,0.7-0.7s-0.3-0.7-0.7-0.7H13.6z M13.3,89.3c0.4,0.1,0.6,0.5,0.5,0.9l-2.7,8
	c-0.1,0.4-0.6,0.6-0.9,0.5c-0.4-0.1-0.6-0.6-0.5-0.9l2.7-8C12.5,89.4,12.9,89.2,13.3,89.3z M84.1,85.4l2.4-0.6l0.6-2.4l0.6,2.4
	l2.4,0.6L87.7,86l-0.6,2.4L86.5,86L84.1,85.4z M79.8,79.6l-2.4,0.6l2.4,0.6l0.6,2.4l0.6-2.4l2.4-0.6L81,79.6l-0.6-2.4L79.8,79.6z
	 M102.7,92.1l2.4-0.6l0.6-2.4l0.6,2.4l2.4,0.6l-2.4,0.6l-0.6,2.4l-0.6-2.4L102.7,92.1z M79,103.4l-2.4,0.6l2.4,0.6l0.6,2.4l0.6-2.4
	l2.4-0.6l-2.4-0.6l-0.6-2.4L79,103.4z M68.4,101.8l2.4-0.6l0.6-2.4l0.6,2.4l2.4,0.6l-2.4,0.6l-0.6,2.4l-0.6-2.4L68.4,101.8z
	 M36.6,91.5l-2.4,0.6l2.4,0.6l0.6,2.4l0.6-2.4l2.4-0.6l-2.4-0.6l-0.6-2.4L36.6,91.5z M24.5,95.1l2.4-0.6l0.6-2.4l0.6,2.4l2.4,0.6
	l-2.4,0.6L27.5,98l-0.6-2.4L24.5,95.1z M19.4,103.4L17,104l2.4,0.6L20,107l0.6-2.4L23,104l-2.4-0.6L20,101L19.4,103.4z M28.2,46.6
	l2.4-0.6l0.6-2.4l0.6,2.4l2.4,0.6l-2.4,0.6l-0.6,2.4l-0.6-2.4L28.2,46.6z M24.6,37.9l-2.4,0.6l2.4,0.6l0.6,2.4l0.6-2.4l2.4-0.6
	l-2.4-0.6l-0.6-2.4L24.6,37.9z M17,33.2l2.4-0.6l0.6-2.4l0.6,2.4l2.4,0.6l-2.4,0.6L20,36.2l-0.6-2.4L17,33.2z M48.3,88.4l4.2-1
	l1-4.2l1,4.2l4.2,1l-4.2,1l-1,4.2l-1-4.2L48.3,88.4z M13,82.1l-4.2,1l4.2,1l1,4.2l1-4.2l4.2-1l-4.2-1l-1-4.2L13,82.1z M82.6,96.5
	l6-1.5l1.5-6l1.5,6l6,1.5l-6,1.5l-1.5,6l-1.5-6L82.6,96.5z M67.7,87.6l-6,1.5l6,1.5l1.5,6l1.5-6l6-1.5l-6-1.5l-1.5-6L67.7,87.6z
	 M0.7,104l6-1.5l1.5-6l1.5,6l6,1.5l-6,1.5l-1.5,6l-1.5-6L0.7,104z M18.5,60.8l-6,1.5l6,1.5l1.5,6l1.5-6l6-1.5l-6-1.5l-1.5-6
	L18.5,60.8z"/>
</svg>
