<?xml version="1.0" encoding="UTF-8"?>
<svg id="Layer_1" xmlns="http://www.w3.org/2000/svg" xmlns:svg="http://www.w3.org/2000/svg" xmlns:sodipodi="http://sodipodi.sourceforge.net/DTD/sodipodi-0.dtd" xmlns:rdf="http://www.w3.org/1999/02/22-rdf-syntax-ns#" xmlns:inkscape="http://www.inkscape.org/namespaces/inkscape" xmlns:dc="http://purl.org/dc/elements/1.1/" xmlns:cc="http://creativecommons.org/ns#" version="1.1" viewBox="0 0 100 125">
  <!-- Generator: Adobe Illustrator 29.3.1, SVG Export Plug-In . SVG Version: 2.1.0 Build 151)  -->
  <defs>
    <style>
      .st0 {
        fill: #fff;
        fill-rule: evenodd;
      }
    </style>
  </defs>
  <path class="st0" d="M50,18.5c-1,0-1.9.7-2,1.7l-3.2,21h0s-2.1,14-2.1,14l-14,2.1h0l-21,3.2c-1.1.2-1.8,1.2-1.7,2.3.1.9.8,1.5,1.7,1.7l21,3.2s0,0,0,0l14,2.1,2.1,14h0s3.2,21,3.2,21c.2,1.1,1.2,1.8,2.3,1.7.9-.1,1.5-.8,1.7-1.7l3.2-21h0s2.1-14,2.1-14l14-2.1s0,0,0,0l21-3.2c1.1-.2,1.8-1.2,1.7-2.3-.1-.9-.8-1.5-1.7-1.7l-21-3.2h0l-14-2.1-2.1-14h0s-3.2-21-3.2-21c-.1-1-1-1.7-1.9-1.7h0Z"/>
</svg>